<svg width="85" height="85" fill="none" xmlns="http://www.w3.org/2000/svg"><g clip-path="url(#a)"><mask id="b" fill="#fff"><path d="M59.11 24.581 35.486 13.763s-3.44-3.057-6.582.684c-1.297 1.544-1.579 3.27-1.579 3.27l-5.915 36.71c-.472 3.4 3.666 4.498 3.666 4.498l31.573 7.904-.124-1.555c.66-1.187 2.135-3.175 4.705-3.419.057-.005.099-.044.149-.07l.959.315-3.228-37.519Zm-22.124 5.79 1.11-8.343 17.694 7.714.336 7.563-19.14-6.935ZM57.524 62.6a8.02 8.02 0 0 0-.866.898l-20.572-5.373 20.022 6.134c-.081.127-.165.252-.234.37L29.37 57.9l26.082 7.535-.025.054-29.478-7.603c-.016-.002-1.404-.298-2.366-1.106-.95-.798-1.133-1.784-.56-3.014 1.472-3.162 6.643-1.31 6.721-1.282l29.737 8.883a6.143 6.143 0 0 0-1.087.573l-19.32-5.112 18.45 5.773Z"/></mask><path d="M59.11 24.581 35.486 13.763s-3.44-3.057-6.582.684c-1.297 1.544-1.579 3.27-1.579 3.27l-5.915 36.71c-.472 3.4 3.666 4.498 3.666 4.498l31.573 7.904-.124-1.555c.66-1.187 2.135-3.175 4.705-3.419.057-.005.099-.044.149-.07l.959.315-3.228-37.519Zm-22.124 5.79 1.11-8.343 17.694 7.714.336 7.563-19.14-6.935ZM57.524 62.6a8.02 8.02 0 0 0-.866.898l-20.572-5.373 20.022 6.134c-.081.127-.165.252-.234.37L29.37 57.9l26.082 7.535-.025.054-29.478-7.603c-.016-.002-1.404-.298-2.366-1.106-.95-.798-1.133-1.784-.56-3.014 1.472-3.162 6.643-1.31 6.721-1.282l29.737 8.883a6.143 6.143 0 0 0-1.087.573l-19.32-5.112 18.45 5.773Z" fill="#9DA2C8"/><path d="m59.11 24.581.996-.085-.05-.581-.53-.243-.416.91ZM35.486 13.763l-.664.748.111.1.137.062.416-.91Zm-8.16 3.954-.988-.16v.001l.987.16Zm-5.916 36.71-.987-.158-.001.01-.002.011.99.138Zm3.666 4.498-.257.967.007.002.007.001.243-.97Zm31.573 7.904-.243.97 1.35.338-.11-1.387-.997.08Zm-.124-1.555-.874-.486-.147.264.024.302.997-.08Zm4.705-3.419.094.996h.004l-.098-.996Zm.149-.07.311-.95-.398-.13-.372.192.459.889Zm.959.315-.312.95 1.438.472-.13-1.507-.996.085ZM38.097 22.028l.4-.917-1.216-.53-.176 1.315.992.132Zm17.693 7.714 1-.045-.028-.623-.572-.249-.4.917Zm.336 7.563-.34.94 1.406.51-.067-1.495-.999.045Zm.532 26.194-.252.968.623.163.406-.5-.777-.63Zm-20.572-5.373.253-.967-.546 1.924.293-.957Zm20.022 6.134.84.543.718-1.111-1.265-.388-.293.956Zm-.234.37-.246.97.731.186.38-.652-.865-.503ZM29.37 57.9l.246-.968-.523 1.93.277-.961Zm26.082 7.535.903.431.509-1.064-1.134-.328-.277.96Zm-.025.054-.25.968.797.206.355-.743-.902-.431Zm-29.478-7.603.25-.969-.061-.015-.062-.008-.127.992Zm-2.926-4.12.907.422-.907-.422Zm6.721-1.282-.345.938.03.011.029.009.286-.958Zm29.737 8.883.365.931 2.703-1.058-2.782-.83-.286.957Zm-1.087.573-.255.966.425.113.371-.238-.54-.841Zm-19.32-5.112.256-.967-.554 1.921.298-.954Zm20.452-33.156L35.902 12.854l-.832 1.819L58.693 25.49l.833-1.819Zm-24.04-9.909.664-.748h-.001l-.002-.002a.435.435 0 0 1-.005-.005l-.014-.012a3.962 3.962 0 0 0-.19-.152 6.297 6.297 0 0 0-.515-.352 6.288 6.288 0 0 0-1.819-.763 4.95 4.95 0 0 0-2.645.079c-.971.304-1.93.936-2.82 1.996l1.53 1.286c.682-.81 1.331-1.2 1.888-1.374a2.951 2.951 0 0 1 1.586-.04c.493.116.922.33 1.233.52a4.278 4.278 0 0 1 .447.316c-.001-.001-.001-.001.663-.749Zm-7.348.04a8.573 8.573 0 0 0-1.793 3.715l-.004.024-.002.008v.005l.986.162.987.162v.003-.005a2.306 2.306 0 0 1 .047-.21 6.572 6.572 0 0 1 1.31-2.577l-1.53-1.286Zm-1.8 3.755-5.915 36.71 1.975.319 5.915-36.71-1.975-.319ZM20.42 54.29c-.307 2.209.923 3.656 2.063 4.474a7.824 7.824 0 0 0 2.264 1.107l.048.014.015.004.005.002a.029.029 0 0 1 .003 0l.258-.966a139.732 139.732 0 0 1 .258-.966h.001-.002l-.022-.006a5.833 5.833 0 0 1-.495-.177 5.834 5.834 0 0 1-1.167-.638c-.81-.581-1.413-1.383-1.248-2.573l-1.981-.275Zm4.413 5.605L56.406 67.8l.486-1.94-31.574-7.904-.485 1.94Zm32.813 6.855-.124-1.555-1.994.159.124 1.555 1.994-.16Zm-.247-.99c.617-1.108 1.864-2.714 3.925-2.91l-.189-1.99c-3.079.292-4.779 2.661-5.484 3.928l1.748.972Zm3.929-2.91a1.192 1.192 0 0 0 .517-.179l.014-.008.008-.005-.03.017-.917-1.778c-.048.025-.088.05-.102.058a.81.81 0 0 1 .314-.095l.196 1.99Zm-.261-.114.959.315.623-1.9-.959-.315-.623 1.9Zm2.267-.721-3.228-37.52-1.992.172 3.227 37.519 1.993-.171ZM37.977 30.502l1.11-8.342-1.982-.264-1.11 8.342 1.982.264Zm-.28-7.558 17.694 7.714.8-1.833-17.695-7.714-.799 1.833Zm17.094 6.842.336 7.563 1.998-.088-.336-7.564-1.998.09Zm1.676 6.579-19.14-6.935-.682 1.88 19.14 6.935.682-1.88Zm.39 25.492a9.01 9.01 0 0 0-.975 1.012l1.553 1.26c.209-.257.464-.52.758-.784l-1.337-1.488Zm.054.675-20.572-5.373-.506 1.935 20.573 5.373.505-1.935Zm-21.118-3.45 20.022 6.135.586-1.913L36.38 57.17l-.586 1.913Zm19.475 4.636c-.07.109-.174.265-.258.41l1.729 1.006c.053-.092.117-.188.21-.33l-1.68-1.086Zm.852-.056-26.504-6.73-.492 1.938 26.504 6.73.492-1.938Zm-27.027-4.8 26.082 7.533.555-1.921-26.082-7.534-.555 1.922Zm25.457 6.141-.025.055 1.804.862.026-.054-1.805-.863Zm1.126-.482-29.478-7.604-.5 1.937 29.479 7.603.5-1.936Zm-29.6-7.627c.064.008.106.02.038.004a6.052 6.052 0 0 1-.644-.2c-.417-.156-.886-.383-1.244-.684l-1.286 1.532c.604.507 1.31.831 1.83 1.026a8.105 8.105 0 0 0 .88.271c.015.004.103.026.172.035l.254-1.984Zm-1.85-.88c-.34-.285-.47-.538-.511-.762-.044-.235-.014-.574.215-1.064l-1.813-.845c-.345.74-.51 1.51-.369 2.274.144.777.58 1.416 1.192 1.929l1.286-1.532Zm-.296-1.826c.463-.996 1.54-1.327 2.928-1.26a9.43 9.43 0 0 1 1.77.27c.478.118.78.228.771.224l.69-1.877a11.845 11.845 0 0 0-3.135-.616c-1.584-.075-3.83.249-4.838 2.415l1.814.844Zm5.528-.746 29.737 8.883.572-1.916-29.737-8.883-.572 1.916Zm29.659 6.994a7.14 7.14 0 0 0-1.263.662l1.081 1.683c.305-.196.597-.36.91-.483l-.728-1.862Zm-.467.537L39.33 55.86l-.511 1.933 19.32 5.112.511-1.933Zm-19.874-3.191 18.45 5.773.597-1.908-18.45-5.774-.597 1.909Z" fill="#6668AA" mask="url(#b)"/></g><defs><clipPath id="a"><path fill="#fff" transform="rotate(40.028 19.295 52.972)" d="M0 0h60v60H0z"/></clipPath></defs></svg>