<svg width="68" height="66" fill="none" xmlns="http://www.w3.org/2000/svg"><g clip-path="url(#a)"><path d="M10.406 16.753a2.197 2.197 0 0 0 .472 3.07l1.305.957a2.197 2.197 0 1 0 2.598-3.543l-1.305-.956a2.197 2.197 0 0 0-3.07.472ZM29.558 5.21a2.233 2.233 0 0 0-1.867 2.546l.386 2.513a2.233 2.233 0 0 0 4.414-.679l-.386-2.513a2.233 2.233 0 0 0-2.547-1.867ZM10.211 39.97a2.233 2.233 0 0 0-.679-4.414l-2.638.406a2.233 2.233 0 0 0 .679 4.414l2.638-.406Zm33.79 8.494c-.19-1.236.31-2.434 1.158-3.278a16.135 16.135 0 0 0 3.566-5.365c1.056-2.567 1.367-5.268.93-8.113-.663-4.308-2.745-7.74-6.262-10.319-3.517-2.58-7.415-3.534-11.724-2.871-4.308.662-7.739 2.744-10.318 6.262-2.58 3.517-3.534 7.415-2.872 11.723.438 2.848 1.527 5.335 3.267 7.473a15.178 15.178 0 0 0 5.03 4.038c1.084.544 1.943 1.546 2.136 2.8l.964 6.272a4.5 4.5 0 0 0 5.132 3.764l6.198-.954a4.5 4.5 0 0 0 3.764-5.132l-.969-6.3Zm11.91-17.782a2.233 2.233 0 0 0 2.546 1.867l2.639-.406a2.233 2.233 0 1 0-.68-4.414l-2.638.406a2.233 2.233 0 0 0-1.867 2.546Zm-8.634-18.455a2.169 2.169 0 0 0 3.481 2.587l.974-1.292a2.18 2.18 0 1 0-3.498-2.6l-.957 1.304Z" fill="#9DA2C8" stroke="#6668AA"/></g><defs><clipPath id="a"><path fill="#fff" transform="scale(1 -1) rotate(8.744 432.075 23.914)" d="M0 0h60v56.949H0z"/></clipPath></defs></svg>