<svg width="118" height="56" fill="none" xmlns="http://www.w3.org/2000/svg"><path d="M107.852 41.02c0 1.65-2.546-1.652-4.243-1.652-1.697 0-5.09 3.303-5.09 1.651 3.393-3.302 3.429-9.908 4.751-9.908 1.322 0 2.036 6.606 4.582 9.908Z" fill="#F5443B"/><path d="M19.45 34.243c0 1.17-.273 2.177-.82 3.024-.523.821-1.394 1.58-2.614 2.277-.821.498-1.78.871-2.875 1.12a14.945 14.945 0 0 1-3.322.373c-1.145 0-2.564-.373-4.256-1.12-1.22-.597-2.19-1.306-2.912-2.128-.697-.821-1.046-1.717-1.046-2.688 0-.672.15-1.157.448-1.456.299-.323.784-.485 1.456-.485.349 0 .71.15 1.083.448.373.274.597.548.672.821.348 1.02.958 1.805 1.83 2.352.87.523 1.953.784 3.247.784 1.494 0 2.738-.273 3.734-.821 1.02-.548 1.53-1.282 1.53-2.203 0-.896-.547-1.692-1.642-2.389-1.095-.697-2.215-1.182-3.36-1.456-1.643-.448-3.099-.983-4.368-1.605-1.32-.647-2.303-1.444-2.95-2.39-.647-.945-.97-1.941-.97-2.986 0-.971.336-1.954 1.008-2.95.672-1.02 1.468-1.754 2.389-2.202.498-.25 1.344-.51 2.539-.784 1.22-.299 2.103-.448 2.65-.448.722 0 1.519.087 2.39.261.87.174 1.58.423 2.128.747 1.095.622 1.904 1.182 2.426 1.68.523.497.784 1.12.784 1.866 0 .448-.174.847-.522 1.195-.324.348-.896.523-1.718.523-.199 0-.398-.087-.597-.262a7.987 7.987 0 0 1-.747-.784c-.398-.522-.784-.87-1.157-1.045-.373-.124-.92-.261-1.643-.41-.697-.15-1.319-.225-1.866-.225-.598 0-1.22.125-1.867.374a4.404 4.404 0 0 0-1.643 1.082c-.423.448-.634.971-.634 1.568 0 .498.224.934.672 1.307a6.27 6.27 0 0 0 1.68.859c.746.298 1.555.56 2.426.784 1.145.348 2.079.672 2.8.97.747.274 1.469.623 2.166 1.046 1.22.721 2.103 1.468 2.65 2.24.548.746.822 1.792.822 3.136Zm5.396-17.211c.871.075 1.63.311 2.277.71.648.373.971.945.971 1.717 0 .572-.274 1.033-.821 1.381-.523.324-1.157.485-1.904.485-.722 0-1.22-.186-1.494-.56-.273-.373-.41-.759-.41-1.157 0-.747.075-1.369.224-1.867.174-.497.56-.734 1.157-.709Zm2.987 16.539v1.082c0 .971.025 1.892.075 2.763.074.846.161 1.705.26 2.576-.024.249-.21.51-.56.784-.348.249-.659.373-.933.373-.472 0-.958-.087-1.456-.261-.472-.2-.759-.436-.858-.71a11.683 11.683 0 0 1-.224-2.127c0-2.041-.062-4.331-.187-6.87-.1-2.24-.15-3.808-.15-4.704 0-.448.225-.833.673-1.157.448-.324.92-.485 1.419-.485.721 0 1.22.161 1.493.485.298.324.448.834.448 1.53v6.72Zm21.685 4.554c.125.05.324.112.598.187.273.075.473.15.597.224a.367.367 0 0 1 .187.336c.025.597-.2 1.095-.672 1.493-.448.374-.983.56-1.606.56-.97 0-1.73-.261-2.277-.784-.548-.522-.946-1.319-1.195-2.389-.1-.423-.149-1.008-.149-1.755 0-.423.025-1.107.075-2.053.05-.996.074-1.792.074-2.39 0-.87-.249-1.63-.746-2.277-.473-.672-1.145-1.008-2.016-1.008-.523 0-1.07.162-1.643.486-.572.298-.97.672-1.195 1.12a8.179 8.179 0 0 0-.784 2.352 25.836 25.836 0 0 0-.41 4.666c0 .772.012 1.37.037 1.792v.598c.025.273 0 .535-.075.784-.05.224-.149.435-.298.634-.125.125-.324.224-.598.299-.249.1-.485.15-.709.15-.349 0-.784-.15-1.307-.449-.522-.298-.821-.634-.896-1.008l-.037-.634c0-.224.025-.486.075-.784.298-1.743.448-3.26.448-4.555 0-.572-.013-1.02-.038-1.344l-.037-1.755c0-.597-.15-1.17-.448-1.717-.299-.572-.647-.859-1.045-.859-.125 0-.299.05-.523.15-.224.074-.41.112-.56.112-.249 0-.523-.125-.821-.374-.274-.249-.411-.51-.411-.784 0-.522.174-.945.523-1.269a6.172 6.172 0 0 1 1.082-.71 2.966 2.966 0 0 1 1.27-.26c.398 0 .721.037.97.111.25.075.585.237 1.008.486.224.124.486.398.784.821.299.423.548 1.02.747 1.792.647-1.195 1.444-2.028 2.39-2.501.97-.498 2.202-.747 3.695-.747.573 0 1.182.187 1.83.56a7.103 7.103 0 0 1 1.717 1.307c.448.547.821 1.232 1.12 2.053.299.796.448 1.518.448 2.165 0 .374-.025.983-.075 1.83a19.28 19.28 0 0 0-.112 2.128c0 1.742.336 2.812 1.008 3.21ZM67.79 41.15c-.846 0-1.493-.124-1.941-.373-.448-.274-.933-.772-1.456-1.493-.647.572-1.618 1.033-2.912 1.381-1.27.348-2.364.523-3.285.523-1.519 0-2.75-.411-3.696-1.232-.921-.847-1.382-2.079-1.382-3.696 0-.697.187-1.332.56-1.904a6.097 6.097 0 0 1 1.531-1.568c.697-.473 1.518-.847 2.464-1.12.97-.274 1.854-.411 2.65-.411 1.345 0 2.54.124 3.585.373v-.037c0-1.344-.336-2.265-1.008-2.763-.647-.522-1.693-.784-3.136-.784-.921 0-1.718.411-2.39 1.232-.249.324-.771.486-1.568.486-.398 0-.697-.162-.896-.486a2.32 2.32 0 0 1-.261-1.045c0-.722.299-1.344.896-1.867.622-.522 1.369-.908 2.24-1.157.871-.274 1.68-.41 2.427-.41.721 0 1.58.149 2.576.447.995.299 1.804.697 2.426 1.195a6.641 6.641 0 0 1 1.718 2.277c.423.847.634 1.78.634 2.8 0 .324-.025.81-.074 1.456-.05.747-.075 1.357-.075 1.83 0 .224-.025.51-.075.858-.05.448-.074.822-.074 1.12 0 .324.1.635.298.934.2.298.473.547.822.746.323.175.535.361.634.56.1.2.15.423.15.672 0 .25-.162.56-.486.934-.298.348-.597.522-.896.522Zm-7.466-7.13c-.971 0-1.83.186-2.576.56-.747.373-1.12 1.033-1.12 1.978 0 .473.161.871.485 1.195.348.324.722.485 1.12.485 1.07 0 1.966-.112 2.688-.336.722-.224 1.593-.634 2.613-1.232.125-.398.2-.958.224-1.68 0-.273.013-.485.038-.634-1.344-.224-2.502-.336-3.472-.336Zm11.244-5.6a.717.717 0 0 1-.523-.224.892.892 0 0 1-.224-.598c0-.721.237-1.269.71-1.642.473-.399 1.057-.598 1.754-.598.971 0 1.805.262 2.502.784.721.498 1.082 1.22 1.082 2.166 0 .249-.05 1.194-.149 2.837-.1 1.892-.15 3.148-.15 3.77 0 .872.163 1.581.486 2.129.349.522.884.784 1.605.784 1.394 0 2.464-.772 3.211-2.315.772-1.568 1.282-3.484 1.53-5.75.1-.995.25-2.04.449-3.135.1-.598.236-1.033.41-1.307.175-.274.51-.41 1.008-.41.324 0 .697.074 1.12.223.448.15.735.349.859.598.15.373.224.784.224 1.232 0 .622-.087 1.43-.261 2.426-.2.996-.336 2.079-.411 3.248-.05 1.046.112 2.14.485 3.286.374 1.145.909 1.891 1.606 2.24.796.398 1.194.759 1.194 1.082 0 .523-.186.934-.56 1.232-.373.299-.734.448-1.082.448-.921 0-1.755-.336-2.502-1.008-.721-.672-1.244-1.505-1.568-2.501-.522.796-1.032 1.456-1.53 1.979-.473.497-1.083.92-1.83 1.269-.746.324-1.667.485-2.762.485-1.294 0-2.477-.46-3.547-1.381-1.045-.92-1.568-2.501-1.568-4.741 0-.623.013-1.282.037-1.979.05-.697.075-1.195.075-1.493.075-.896.112-1.718.112-2.464a.707.707 0 0 0-.261-.56.716.716 0 0 0-.523-.224c-.15 0-.323.025-.523.074a3.445 3.445 0 0 1-.485.038Zm38.403 3.696c.15-.548.312-1.295.486-2.24.249-1.12.448-1.967.597-2.539.149-.572.349-1.058.597-1.456.274-.448.511-.747.71-.896.224-.15.46-.224.709-.224 1.294 0 1.941.498 1.941 1.493 0 .498-.199 1.431-.597 2.8-1.319 3.983-2.265 7.069-2.837 9.259-.249.92-.622 1.63-1.12 2.128-.498.473-1.17.71-2.016.71-.423 0-.859-.2-1.307-.598a5.212 5.212 0 0 1-1.045-1.53l-.411-1.009a210.384 210.384 0 0 1-1.568-4.069c-.323-.97-.535-1.842-.635-2.613l-.336 1.194a95.36 95.36 0 0 1-1.866 5.974c-.324.945-.722 1.63-1.195 2.053-.473.398-1.082.597-1.83.597-.447 0-.845-.1-1.194-.298-.323-.2-.635-.535-.933-1.008-.398-.647-.784-1.519-1.157-2.614-.349-1.095-.86-2.8-1.531-5.114a47.137 47.137 0 0 1-.896-3.136c-.274-1.12-.41-1.904-.41-2.352 0-.523.136-.934.41-1.232.274-.299.672-.448 1.194-.448.672 0 1.145.137 1.42.41.273.25.522.635.746 1.158.124.896.398 2.165.821 3.808l.822 3.509c.05.274.199.846.447 1.717l.3 1.083a35.681 35.681 0 0 0 1.38-3.36 73.98 73.98 0 0 0 1.232-3.957c.025-.1.274-.959.747-2.576.324-.523.61-.909.859-1.158.249-.273.498-.41.746-.41a1.8 1.8 0 0 1 1.27.485c.373.299.647.672.821 1.12.299.97.56 1.854.784 2.65.1.324.324 1.108.672 2.353a77.87 77.87 0 0 0 1.008 3.098c.299.847.548 1.444.747 1.792l1.418-4.554Z" fill="url(#a)"/><path d="M29.037 19.704c0 1.718-1.393 2.592-3.111 2.592-1.718 0-2.593-.874-2.593-2.592 0-1.719.875-2.593 2.593-2.593s3.111.874 3.111 2.593Z" fill="#F5443B"/><defs><linearGradient id="a" x1="58.593" y1="0" x2="58.593" y2="56" gradientUnits="userSpaceOnUse"><stop stop-color="#C7CAFE"/><stop offset="1" stop-color="#3D408F"/></linearGradient></defs></svg>